<?xml version="1.0" standalone="no"?>
<!DOCTYPE svg PUBLIC "-//W3C//DTD SVG 20010904//EN"
 "http://www.w3.org/TR/2001/REC-SVG-20010904/DTD/svg10.dtd">
<svg version="1.0" xmlns="http://www.w3.org/2000/svg"
 width="500.000000pt" height="500.000000pt" viewBox="0 0 500.000000 500.000000"
 preserveAspectRatio="xMidYMid meet">

<g transform="translate(0.000000,500.000000) scale(0.100000,-0.100000)"
fill="#000000" stroke="none">
<path d="M1930 4086 c-200 -43 -327 -230 -305 -451 7 -71 43 -179 76 -227 11
-14 19 -28 19 -31 0 -3 -35 -17 -78 -31 -108 -36 -194 -90 -264 -165 l-60 -64
-144 32 c-179 41 -206 42 -239 11 -22 -21 -25 -32 -23 -74 3 -45 6 -51 38 -67
20 -10 101 -36 180 -56 l145 -38 7 -52 c17 -119 80 -227 197 -340 34 -32 61
-62 61 -67 0 -4 -23 -45 -50 -91 -79 -132 -112 -208 -101 -236 15 -41 49 -64
93 -64 50 0 64 16 154 168 37 62 67 113 69 115 1 1 37 -14 81 -34 101 -47 247
-97 349 -119 44 -9 85 -22 91 -29 7 -7 15 -90 22 -214 11 -219 17 -243 70
-263 36 -14 98 4 114 34 12 23 14 280 2 383 l-6 51 109 6 c74 3 112 1 120 -7
6 -6 43 -85 82 -176 73 -170 101 -210 147 -210 39 0 80 26 94 61 16 37 15 37
-72 243 -32 76 -57 140 -54 143 2 3 35 22 71 44 l67 39 91 -44 c111 -53 163
-66 259 -66 291 1 536 213 579 503 18 121 -11 264 -76 371 -34 57 -35 60 -18
79 26 29 69 44 147 52 87 10 116 33 116 95 0 31 -6 47 -26 67 -24 24 -29 25
-122 21 -112 -5 -166 -24 -231 -84 l-42 -38 -65 32 c-58 29 -64 35 -58 55 53
175 169 317 342 419 96 58 107 69 107 119 0 82 -78 113 -168 68 -133 -68 -305
-225 -376 -343 -19 -31 -51 -101 -71 -154 l-36 -97 -63 -7 c-90 -10 -179 -42
-258 -93 -59 -39 -69 -42 -75 -27 -4 9 -25 65 -48 124 -142 370 -472 677 -781
727 -79 13 -119 13 -189 -3z m233 -207 c188 -62 406 -268 517 -489 33 -65 83
-200 74 -200 -2 0 -40 18 -83 39 -168 85 -451 161 -597 161 -110 0 -167 37
-222 145 -66 130 -35 291 65 344 53 28 163 28 246 0z m79 -704 c122 -26 122
-26 90 -73 -31 -45 -71 -145 -92 -228 -24 -94 -27 -306 -6 -421 12 -66 11 -73
-3 -73 -33 0 -257 67 -303 91 -25 13 -32 98 -18 245 17 190 67 323 163 435 38
44 59 47 169 24z m1203 -20 c117 -30 236 -144 270 -258 22 -73 19 -171 -7
-248 -18 -53 -34 -76 -92 -135 -91 -91 -151 -117 -277 -118 -79 -1 -90 2 -161
37 -84 41 -142 98 -187 182 -24 46 -26 60 -26 165 0 135 15 175 97 265 98 108
237 147 383 110z"/>
<path d="M1110 1240 l0 -230 57 0 56 0 -7 138 c-3 75 -9 148 -12 162 -3 14 32
-48 77 -137 l83 -163 58 0 58 0 0 230 0 230 -57 0 -56 0 6 -152 6 -153 -77
153 -77 152 -57 0 -58 0 0 -230z"/>
<path d="M2830 1240 l0 -230 103 0 c119 0 167 11 208 48 55 49 49 144 -11 180
l-30 19 25 23 c34 32 43 84 20 126 -26 49 -74 64 -205 64 l-110 0 0 -230z
m198 134 c46 -32 16 -84 -49 -84 l-39 0 0 50 c0 50 0 50 33 50 18 0 43 -7 55
-16z m27 -184 c21 -17 19 -67 -2 -79 -10 -5 -39 -12 -65 -16 l-48 -7 0 62 0
63 50 -5 c27 -3 56 -11 65 -18z"/>
<path d="M1670 1363 c-68 -26 -110 -94 -110 -178 0 -113 65 -180 175 -180 37
1 72 7 93 18 31 17 32 18 17 46 -14 28 -16 29 -74 24 -55 -5 -61 -4 -88 23
l-28 29 108 3 107 3 0 52 c0 97 -61 168 -144 166 -23 0 -48 -3 -56 -6z m90
-93 c32 -32 24 -40 -40 -40 -57 0 -60 1 -50 20 22 41 60 50 90 20z"/>
<path d="M2553 1355 c-34 -15 -63 -59 -63 -98 0 -37 36 -75 99 -105 62 -30 77
-58 37 -68 -17 -4 -40 1 -66 14 l-40 19 -25 -32 -25 -33 23 -14 c63 -41 130
-47 194 -19 49 23 63 45 63 100 0 49 -21 74 -88 102 -63 27 -75 38 -61 55 14
18 47 17 79 0 23 -13 26 -12 47 17 13 17 23 32 23 34 0 2 -19 13 -42 23 -50
23 -110 25 -155 5z"/>
<path d="M3316 1347 c-74 -41 -108 -155 -72 -240 20 -49 78 -95 129 -102 46
-7 111 6 141 28 17 13 17 14 -1 44 -14 24 -23 29 -33 22 -41 -25 -140 1 -140
37 0 11 19 14 99 14 98 0 99 0 103 25 7 35 -8 109 -27 139 -37 56 -132 72
-199 33z m112 -73 c41 -29 28 -44 -38 -44 -57 0 -60 1 -50 20 11 20 37 39 55
40 6 0 21 -7 33 -16z"/>
<path d="M3686 1347 c-74 -41 -108 -155 -72 -240 20 -49 78 -95 129 -102 46
-7 111 6 141 28 17 13 17 14 -1 44 -14 24 -23 29 -33 22 -41 -25 -140 1 -140
37 0 11 19 14 99 14 98 0 99 0 103 25 7 35 -8 109 -27 139 -37 56 -132 72
-199 33z m112 -73 c41 -29 28 -44 -38 -44 -57 0 -60 1 -50 20 11 20 37 39 55
40 6 0 21 -7 33 -16z"/>
<path d="M1922 1343 c3 -10 22 -89 44 -175 l38 -158 63 0 c72 0 62 -14 92 140
18 91 19 93 26 55 4 -22 15 -74 24 -115 l17 -75 65 -3 66 -3 16 73 c9 40 27
119 40 176 l25 103 -51 -3 -52 -3 -18 -100 c-26 -144 -29 -155 -34 -130 -3 11
-16 68 -30 128 l-25 107 -48 0 -48 0 -21 -92 c-12 -51 -25 -111 -29 -133 l-8
-40 -8 50 c-4 28 -14 87 -23 133 l-16 82 -55 0 c-47 0 -54 -2 -50 -17z"/>
</g>
</svg>
